<?xml version="1.0" standalone="no"?>
<!DOCTYPE svg PUBLIC "-//W3C//DTD SVG 20010904//EN"
 "http://www.w3.org/TR/2001/REC-SVG-20010904/DTD/svg10.dtd">
<svg version="1.0" xmlns="http://www.w3.org/2000/svg"
 width="120.000000pt" height="120.000000pt" viewBox="0 0 120.000000 120.000000"
 preserveAspectRatio="xMidYMid meet">
<metadata>
Created by potrace 1.11, written by Peter Selinger 2001-2013
</metadata>
<g transform="translate(0.000000,120.000000) scale(0.100000,-0.100000)"
fill="#000000" stroke="none">
<path d="M1037 1140 c-55 -23 -86 -42 -142 -86 -22 -17 -50 -35 -62 -38 -11
-4 -27 -13 -33 -21 -18 -22 -32 -18 -20 5 23 44 -57 11 -97 -40 -7 -8 -28 -49
-48 -90 -49 -100 -131 -181 -181 -177 -18 2 -37 6 -40 10 -4 4 -16 7 -26 7
-10 0 -18 7 -18 15 0 16 -42 30 -64 22 -10 -4 -13 -1 -9 9 3 7 10 14 15 14 6
0 5 7 -2 15 -11 14 -16 14 -35 1 l-22 -15 14 41 c7 22 12 42 10 44 -1 2 -16
-3 -31 -11 -36 -19 -39 -19 -28 3 9 17 8 49 -2 59 -3 3 -15 -11 -27 -31 -11
-20 -22 -36 -23 -36 -1 0 -1 18 0 40 1 28 -3 40 -13 40 -15 0 -24 -18 -27 -55
-2 -38 -12 -30 -22 17 -5 23 -15 43 -21 46 -19 6 -16 -72 4 -111 13 -26 13
-30 1 -20 -8 7 -25 35 -39 62 -25 52 -53 69 -45 29 7 -38 24 -76 43 -96 10
-10 25 -26 33 -37 14 -17 14 -18 -7 -7 -12 7 -27 12 -34 12 -21 0 18 -35 66
-59 49 -24 56 -36 27 -45 -27 -9 -56 -43 -91 -109 -36 -68 -36 -68 -12 -95 23
-27 27 -27 34 -2 7 26 69 52 128 53 36 0 54 -6 83 -28 20 -15 36 -31 36 -36 0
-5 18 -27 40 -49 l40 -40 -43 -40 c-23 -22 -47 -40 -53 -40 -6 0 -17 -7 -24
-15 -13 -16 -34 -15 -67 3 -31 17 -68 0 -81 -37 -6 -17 -8 -31 -5 -31 3 0 0
-7 -7 -15 -7 -8 -10 -25 -6 -40 7 -28 26 -35 21 -7 -3 18 12 42 26 42 5 0 9
-8 9 -19 0 -10 9 -21 20 -24 12 -3 17 -1 14 5 -3 5 3 12 15 15 12 3 24 16 27
28 8 31 45 39 83 17 44 -25 49 -45 6 -25 -33 16 -36 15 -56 -3 -51 -46 -75
-98 -58 -125 7 -11 9 -10 9 6 0 20 64 95 81 95 13 0 12 -3 -15 -50 -13 -23
-21 -50 -19 -61 5 -18 7 -18 31 6 13 14 28 25 33 25 4 0 10 9 14 19 3 11 17
26 30 35 23 15 27 15 58 -3 19 -11 44 -24 56 -30 60 -31 58 -31 57 -8 -1 12 1
24 5 27 4 3 9 19 12 36 7 43 29 104 39 104 16 0 31 -47 30 -97 0 -38 6 -60 20
-78 20 -25 48 -34 48 -14 0 6 11 4 28 -5 46 -25 95 -37 105 -27 6 6 17 6 26 2
22 -11 81 -12 81 -1 0 5 16 2 35 -6 42 -17 45 -17 45 0 0 9 8 12 25 8 28 -5
35 17 11 38 -8 6 -13 17 -10 25 4 8 -17 26 -56 49 -34 20 -65 36 -70 36 -5 0
-15 6 -22 14 -8 8 -46 34 -86 60 -39 25 -79 58 -89 73 -10 15 -20 30 -23 33
-6 6 -23 34 -49 81 l-19 36 40 -14 c45 -15 81 -8 123 25 23 18 23 20 8 43 -16
24 -16 24 3 6 20 -16 22 -16 64 22 31 28 39 40 30 46 -10 6 -7 11 9 17 17 6
22 14 18 28 -4 15 0 20 13 20 25 0 35 17 20 35 -9 11 -6 14 12 17 15 2 23 9
22 21 -1 9 2 18 7 18 5 1 14 3 19 4 6 1 15 3 20 4 6 0 10 11 10 23 0 19 1 20
18 6 22 -21 86 -38 102 -28 14 9 -8 38 -45 58 -24 14 -1 16 24 3 9 -5 23 -6
30 -2 10 6 4 15 -20 33 -35 26 -69 42 -81 40 -5 -1 -8 3 -8 9 0 10 94 4 112
-7 4 -2 9 0 12 5 14 23 -76 54 -156 54 -55 0 -39 11 54 37 89 25 111 36 102
52 -10 16 -142 3 -203 -21 -53 -20 -84 -20 -49 0 9 5 23 15 30 22 18 18 105
77 113 77 12 0 34 27 28 34 -10 9 -24 7 -76 -14z m-843 -926 c20 -8 21 -30 2
-37 -8 -3 -18 5 -25 19 -11 24 -5 29 23 18z"/>
</g>
</svg>
